<?xml version="1.0" encoding="UTF-8"?><svg id="Layer_1" xmlns="http://www.w3.org/2000/svg" viewBox="0 0 348 328"><defs><style>.cls-123{fill:#004d80;stroke-width:0px;}</style></defs><path class="cls-123" d="M46.8,259.8c7.9,0,15,0,22.2,0,13.8,0,21.8-8.1,21.8-22.1,0-6.9-.2-13.9,0-20.8.3-8.1-1.9-15-8.9-20.3,7.7-5.5,9.3-13.1,8.9-21.7-.2-5.7-.2-11.4,0-17,.3-8.3-1.5-15.7-9-21,7.5-5.5,9.3-12.9,9-21.4-.3-6.9,0-13.8,0-20.8-.1-12.3-8.2-20.6-20.5-21-6.2-.2-12.5,0-18.7,0-1.5,0-3,0-4.5,0,0-10.9-1.1-21.6.2-31.9,2.2-17.1,16.2-27.9,34.3-28,30.8,0,61.5,0,92.3,0,18.7,0,37.4,0,56.1,0h5.5c-13.6,16-18.7,33.6-14.7,53.4,2.6,13,9.2,24,19.3,32.7,11.6,10,25.1,15,40.4,14.7,15.3-.3,28.5-6,40.3-16.6.1,2,.2,3.3.2,4.6,0,60.5,0,121,0,181.6,0,21.5-13.9,35.5-35.2,35.5-68,0-136,0-204,0-21.2,0-35-14-35-35.3,0-8,0-16,0-24.6ZM159.4,164.7c-1.6.7-2.9,1.2-4.1,1.8-27.2,13.2-42,34.7-43.6,64.9-.3,6.2,2,8.5,8.4,8.5,43.1,0,86.1,0,129.2,0,6.5,0,8.9-2.4,8.5-8.8-1.7-28.3-15.1-49.2-39.9-62.8-2.5-1.4-5.1-2.5-7.8-3.7,21.1-19.5,16.7-45.4,2.7-59.3-15.4-15.3-40.1-15.4-55.8-.4-13.9,13.3-19.2,39.7,2.4,59.8Z"/><path class="cls-123" d="M279.4,8.3c25.6,0,46.6,20.8,46.6,46.4,0,25.5-20.9,46.5-46.5,46.6-25.5,0-46.5-20.9-46.5-46.5,0-25.7,20.6-46.4,46.4-46.5ZM279.6,63.6c2.7,3,4.7,5.4,6.9,7.7,3.3,3.3,7.1,3.5,9.9.7,3-2.9,2.8-6.7-.7-10.2-2.2-2.2-4.7-4.3-7.8-7,3.1-2.8,5.7-4.8,8-7.2,3.3-3.3,3.4-7.1.6-9.9-2.7-2.7-6.8-2.5-9.9.7-2.3,2.3-4.3,5-6.8,7.9-3.1-3.3-5.3-5.9-7.7-8.2-3.1-2.9-7-3.1-9.6-.5-2.8,2.7-2.8,6.7.4,9.9,2.3,2.4,4.9,4.4,8.2,7.4-3.2,2.8-5.8,4.8-8.2,7.2-3.2,3.2-3.3,7.2-.5,9.9,2.8,2.7,6.6,2.5,9.9-.7,2.3-2.2,4.4-4.6,7.2-7.7Z"/><path class="cls-123" d="M49.8,126.9c-6.6,0-13.3,0-19.9,0-5.4,0-7.8-2.4-7.8-7.9,0-8,0-16,0-24.1,0-5.2,2.4-7.8,7.6-7.8,13.4-.1,26.8-.1,40.3,0,5.2,0,7.6,2.6,7.6,7.8,0,8,0,16,0,24.1,0,5.5-2.4,7.9-7.8,7.9-6.6,0-13.3,0-19.9,0Z"/><path class="cls-123" d="M49.7,186.7c-6.6,0-13.3,0-19.9,0-5.2,0-7.6-2.4-7.7-7.6,0-8.2,0-16.3,0-24.5,0-5.1,2.5-7.6,7.7-7.7,13.3-.1,26.6-.1,39.8,0,5.4,0,7.8,2.5,7.9,8,0,8,0,16,0,24.1,0,5.4-2.4,7.7-7.9,7.8-6.6,0-13.3,0-19.9,0Z"/><path class="cls-123" d="M49.4,246.5c-6.5,0-13,0-19.5,0-5.5,0-7.8-2.4-7.9-7.9,0-8,0-16,0-24.1,0-5.2,2.4-7.8,7.6-7.8,13.4-.1,26.8-.1,40.3,0,5.2,0,7.6,2.6,7.6,7.8,0,8,0,16,0,24.1,0,5.7-2.4,7.9-8.2,8-6.6,0-13.3,0-19.9,0Z"/><path class="cls-123" d="M243.6,226.3h-117.7c-1.9-25.3,28.3-52.6,58.5-52.9,30-.3,60.5,26.8,59.2,52.9Z"/><path class="cls-123" d="M184.2,160.1c-14.8-.3-26.3-12.3-26-27.3.3-14.4,12.7-26.3,27.1-25.8,14.6.5,26.3,12.5,26.1,26.9-.2,14.7-12.4,26.4-27.2,26.1Z"/></svg>