<svg xmlns="http://www.w3.org/2000/svg" width="16" height="14" viewBox="0 0 16 14">
  <path id="Icon" d="M1.331,12.571a4.813,4.813,0,0,1,.058-6.705A4.713,4.713,0,0,1,7.3,5.221l.18.122,2.531-2.552a.724.724,0,0,1,.279-.176L12.555.227a.725.725,0,0,1,.973-.074l.07.062,2.188,2.208a.74.74,0,0,1,.061.971l-.061.069L13.233,6.04a.724.724,0,0,1-.963.061L12.2,6.04,10.6,4.423,8.621,6.51l.046.067a4.819,4.819,0,0,1,.716,3.464l-.042.213-.046.191a4.763,4.763,0,0,1-3.366,3.4,4.711,4.711,0,0,1-4.6-1.269Z" transform="translate(0 0)" fill="#004d80"/>
</svg>
