<svg xmlns="http://www.w3.org/2000/svg" width="18" height="18" viewBox="0 0 18 18">
  <path id="Icon" d="M9,18a9,9,0,1,1,9-9,9.01,9.01,0,0,1-9,9ZM7.139,16.126A13.387,13.387,0,0,1,4.953,9.818H1.681A7.382,7.382,0,0,0,7.139,16.126Zm3.723,0a7.383,7.383,0,0,0,5.457-6.307H13.05A13.334,13.334,0,0,1,10.862,16.125ZM9,15.913a11.608,11.608,0,0,0,2.41-6.095H6.592A11.611,11.611,0,0,0,9,15.913Zm7.319-7.731A7.383,7.383,0,0,0,10.86,1.874a13.4,13.4,0,0,1,2.188,6.308Zm-4.91,0A11.619,11.619,0,0,0,9,2.087a11.767,11.767,0,0,0-2.408,6.1Zm-6.458,0A13.329,13.329,0,0,1,7.138,1.875,7.383,7.383,0,0,0,1.681,8.182Z" fill="#004d80"/>
</svg>
