<svg id="Icons_logo_apple" data-name="Icons / logo / apple" xmlns="http://www.w3.org/2000/svg" width="32" height="32" viewBox="0 0 32 32">
  <rect id="Icons_logo_apple_Frame_Background_" data-name="Icons / logo / apple [Frame Background]" width="32" height="32" fill="none"/>
  <g id="Icon">
    <path id="Icon-2" data-name="Icon" d="M17.816,0a7.108,7.108,0,0,1,5.362,2.843,6.163,6.163,0,0,0,.817,11.146,19.5,19.5,0,0,1-1.812,3.4c-1.177,1.794-2.834,4.031-4.9,4.053h-.038c-1.785,0-2.273-1.181-4.7-1.181h-.038c-2.467.014-3,1.188-4.792,1.188H7.679c-2.062-.022-3.635-2.041-4.812-3.842C-.426,12.576-.771,6.672,1.262,3.537A7.308,7.308,0,0,1,7.126.009C9.31.009,10.682,1.2,12.482,1.2c1.755,0,2.82-1.2,5.34-1.2Z" transform="translate(4.062 8.554)" fill="#004d80" fill-rule="evenodd"/>
    <path id="Icon-3" data-name="Icon" d="M4.374,4.541A5.621,5.621,0,0,1,.186,6.736H.066A5.689,5.689,0,0,1,1.461,2.3,6.6,6.6,0,0,1,5.736,0,6.1,6.1,0,0,1,4.374,4.541Z" transform="translate(15.592 2)" fill="#004d80" fill-rule="evenodd"/>
  </g>
</svg>
