<?xml version="1.0" encoding="UTF-8"?><svg id="Layer_1" xmlns="http://www.w3.org/2000/svg" width="50" height="50" viewBox="0 0 50 50"><defs><style>.cls-1{fill:#fff;}.cls-1,.cls-2{stroke-width:0px;}.cls-2{fill:#738896;}</style></defs><g id="Like"><path id="Oval" class="cls-2" d="M25,0c13.8,0,25,11.2,25,25s-11.2,25-25,25S0,38.8,0,25,11.2,0,25,0Z"/></g><path class="cls-1" d="M33.8,25.3c0,3.7,0,7.4,0,11.1,0,.2,0,.4,0,.5,0,.3-.2.7-.4.8-.2.1-.6,0-.8-.2-1.2-.9-2.4-1.8-3.6-2.7-1-.8-2.1-1.6-3.1-2.3-.8-.6-1.1-.6-1.8,0-2.2,1.7-4.4,3.4-6.7,5-.2.2-.7.3-.9.2-.2-.1-.3-.6-.3-.9,0-7.7,0-15.3,0-23,0-1.1.4-1.5,1.5-1.5,4.8,0,9.7,0,14.5,0,1.2,0,1.6.4,1.6,1.6,0,3.8,0,7.6,0,11.4Z"/></svg>