<svg xmlns="http://www.w3.org/2000/svg" width="38" height="38" viewBox="0 0 38 38">
  <g id="camera" transform="translate(-203 -202)">
    <g id="Oval" transform="translate(205 204)" fill="#004d80" stroke="#fff" stroke-width="2">
      <circle cx="17" cy="17" r="17" stroke="none"/>
      <circle cx="17" cy="17" r="18" fill="none"/>
    </g>
    <g id="icon_camera-2" data-name="icon/camera-2" transform="translate(214 213)">
      <g id="Camera-2" data-name="Camera">
        <path id="Camera-3" data-name="Camera" d="M12.512,15H3.488A3.443,3.443,0,0,1,0,11.613V7A3.443,3.443,0,0,1,3.488,3.611a.156.156,0,0,0,.151-.094l.049-.094.1-.2c.2-.4.42-.86.557-1.127A1.952,1.952,0,0,1,6.112,1H9.88a1.958,1.958,0,0,1,1.776,1.1c.128.249.324.651.513,1.039l.1.212.079.171a.185.185,0,0,0,.16.094A3.443,3.443,0,0,1,16,7v4.615A3.443,3.443,0,0,1,12.512,15ZM8,5.98a3.185,3.185,0,0,0-2.232.9,2.963,2.963,0,0,0-.912,2.152,3.018,3.018,0,0,0,.92,2.16A3.2,3.2,0,0,0,8,12.087a3.161,3.161,0,0,0,2.216-.894,2.987,2.987,0,0,0,.008-4.32A3.172,3.172,0,0,0,8,5.98Zm4.488-.186a.7.7,0,1,0,.727.707A.715.715,0,0,0,12.488,5.793ZM8,10.922a1.963,1.963,0,0,1-1.376-.552,1.849,1.849,0,0,1-.568-1.337V9.025a1.789,1.789,0,0,1,.56-1.32A1.992,1.992,0,0,1,9.376,7.7a1.849,1.849,0,0,1,.568,1.337A1.929,1.929,0,0,1,8,10.922Z" fill="#fff"/>
      </g>
    </g>
  </g>
</svg>
