<?xml version="1.0" encoding="utf-8"?>
<!-- Generator: Adobe Illustrator 28.3.0, SVG Export Plug-In . SVG Version: 6.00 Build 0)  -->
<svg version="1.1" id="Layer_1" xmlns="http://www.w3.org/2000/svg" xmlns:xlink="http://www.w3.org/1999/xlink" x="0px" y="0px"
	 viewBox="0 0 22 22" style="enable-background:new 0 0 22 22;" xml:space="preserve">
<style type="text/css">
	.st0{fill:none;stroke:#000000;stroke-width:2;stroke-linecap:round;stroke-linejoin:round;stroke-miterlimit:10;}
</style>
<path id="Icon" class="st0" d="M21,10.4c0,1.5-0.3,2.9-1,4.2c-1.6,3.2-4.9,5.2-8.4,5.2c-1.5,0-2.9-0.3-4.2-1L1,21l2.1-6.3
	c-0.7-1.3-1-2.8-1-4.2c0-3.6,2-6.8,5.2-8.4c1.3-0.7,2.8-1,4.2-1h0.6c4.8,0.3,8.6,4.1,8.9,8.9V10.4L21,10.4z"/>
<g id="Icon_feather-info" transform="translate(-2 -2)">
	<path d="M13.3,17c-0.5,0-1-0.4-1-1v-3.6c0-0.6,0.4-1,1-1c0.5,0,1,0.4,1,1V16C14.3,16.6,13.9,17,13.3,17z M13.3,9.9
		c-0.5,0-1-0.4-1-1c0-0.6,0.4-1,1-1h0c0.5,0,1,0.4,1,1C14.3,9.5,13.9,9.9,13.3,9.9z"/>
</g>
</svg>
