<?xml version="1.0" encoding="UTF-8"?><svg id="Layer_1" xmlns="http://www.w3.org/2000/svg" width="50" height="50" viewBox="0 0 50 50"><defs><style>.cls-11{fill:#ffb534;}.cls-11,.cls-22{stroke-width:0px;}.cls-22{fill:#fff;}</style></defs><g id="Like"><path id="Oval" class="cls-11" d="M25,0c13.8,0,25,11.2,25,25s-11.2,25-25,25S0,38.8,0,25,11.2,0,25,0Z"/></g><path class="cls-22" d="M17.5,33.8c-.3.6-.7,1.1-1,1.7-.8,1.3-1.6,2.6-2.4,3.9-.6,1-1.7,1.3-2.7.8-1.1-.6-1.5-1.9-.8-3,.7-1.1,1.4-2.3,2.1-3.4.9-1.4,1.7-2.7,2.6-4.1,1.1-1.7,2.7-2.6,4.8-2.7,1.6,0,3.1,0,4.7,0,1.6,0,3.1-.5,4.3-1.5.9-.8,1.4-1.8,1.8-2.9.3-1.1.7-2.1,1-3.2.4-1.1,1.5-1.6,2.6-1.3,1,.3,1.6,1.5,1.3,2.5-.5,1.6-1,3.2-1.7,4.8-1.2,2.6-3.2,4.3-5.9,5.1,0,0-.1,0-.2,0-.4,0-.5.2-.5.6,0,2.6,0,5.3,0,7.9,0,.1,0,.2,0,.4,0,.8-.5,1.3-1.3,1.3-2.4,0-4.9,0-7.3,0-.8,0-1.3-.6-1.3-1.4,0-1.7,0-3.5,0-5.2,0-.1,0-.2,0-.3,0,0,0,0-.1,0Z"/><path class="cls-22" d="M22.6,15.8c2.7,0,4.8,2.1,4.8,4.8,0,2.6-2.2,4.8-4.8,4.8-2.7,0-4.8-2.2-4.8-4.9,0-2.6,2.2-4.7,4.8-4.7Z"/><path class="cls-22" d="M35.4,9.2c-2.4,0-4.4,1.7-4.4,3.8s.2,1.4.7,2.1c0,.9-.3,1.6-.7,1.9,0,0,0,.1,0,.2,0,0,0,0,.1,0s0,0,0,0c0,0,1.4-.2,2.4-.7.6.2,1.2.3,1.8.3,2.4,0,4.4-1.7,4.4-3.8s-2-3.8-4.4-3.8Z"/></svg>