<svg width="20" height="20" viewBox="0 0 20 20" fill="none" xmlns="http://www.w3.org/2000/svg">
<path d="M2.5 5.32167C2.5 4.91833 2.7875 4.59083 3.1425 4.59083H5.36333C5.80417 4.5775 6.19333 4.25833 6.34333 3.78667L6.36833 3.70333L6.46417 3.3775C6.5225 3.1775 6.57333 3.0025 6.645 2.84667C6.92667 2.23083 7.44833 1.80333 8.05083 1.69417C8.20417 1.66667 8.36583 1.66667 8.55083 1.66667H11.4492C11.635 1.66667 11.7967 1.66667 11.9492 1.69417C12.5517 1.80333 13.0742 2.23083 13.355 2.84667C13.4267 3.0025 13.4775 3.17667 13.5367 3.3775L13.6317 3.70333L13.6567 3.78667C13.8067 4.25833 14.2733 4.57833 14.715 4.59083H16.8567C17.2125 4.59083 17.5 4.91833 17.5 5.32167C17.5 5.725 17.2125 6.0525 16.8575 6.0525H3.14167C2.7875 6.0525 2.5 5.725 2.5 5.32167Z" fill="#FF5630"/>
<path fill-rule="evenodd" clip-rule="evenodd" d="M9.66333 18.3333H10.3367C12.6558 18.3333 13.815 18.3333 14.57 17.595C15.3233 16.8567 15.4 15.6458 15.5542 13.2242L15.7767 9.73417C15.86 8.42 15.9017 7.7625 15.5242 7.34667C15.1458 6.93 14.5075 6.93 13.23 6.93H6.77C5.4925 6.93 4.85333 6.93 4.47583 7.34667C4.0975 7.76333 4.13917 8.42 4.22333 9.73417L4.44583 13.2242C4.6 15.6458 4.67667 16.8575 5.43083 17.595C6.185 18.3333 7.34417 18.3333 9.66333 18.3333ZM8.53833 10.1575C8.505 9.79583 8.19833 9.5325 7.855 9.56833C7.51083 9.60417 7.26083 9.92667 7.295 10.2883L7.71167 14.6742C7.745 15.0358 8.05167 15.2992 8.395 15.2633C8.73917 15.2275 8.98917 14.905 8.955 14.5433L8.53833 10.1575ZM12.1458 9.56833C12.4892 9.60417 12.74 9.92667 12.705 10.2883L12.2883 14.6742C12.255 15.0358 11.9475 15.2992 11.605 15.2633C11.2608 15.2275 11.0108 14.905 11.045 14.5433L11.4617 10.1575C11.495 9.79583 11.8033 9.5325 12.1458 9.56833Z" fill="#FF5630"/>
</svg>
