<svg id="Edit_Icon" xmlns="http://www.w3.org/2000/svg" width="15" height="15" viewBox="0 0 15 15">
  <path id="Edit_Icon-2" data-name="Edit_Icon" d="M218.937,211h3.974a.93.93,0,0,0,.36-.07.918.918,0,0,0,.305-.2l6.485-6.494,2.662-2.606a.937.937,0,0,0,0-1.33l-3.974-4.021a.942.942,0,0,0-.3-.2.938.938,0,0,0-.721,0,.952.952,0,0,0-.305.2l-2.642,2.652-6.5,6.495a.918.918,0,0,0-.2.305.93.93,0,0,0-.07.36v3.974a.939.939,0,0,0,.937.937Zm8.481-12.071a.942.942,0,0,1,1.331,0l1.322,1.322a.941.941,0,0,1-1.331,1.331l-1.322-1.322A.942.942,0,0,1,227.418,198.929Zm-7.544,7.959a1,1,0,0,1,.293-.707l4.558-4.558a1,1,0,0,1,1.414,0l1.238,1.238a1,1,0,0,1,0,1.414l-4.558,4.558a1,1,0,0,1-.707.293h-1.238a1,1,0,0,1-1-1Z" transform="translate(-218 -196)" fill="currentColor"/>
</svg>
