<svg width="20" height="20" viewBox="0 0 20 20" fill="none" xmlns="http://www.w3.org/2000/svg">
<path d="M9.5 15.1342L15.6633 8.97083C14.6264 8.5379 13.6846 7.90535 12.8917 7.10917C12.0951 6.31601 11.4623 5.37398 11.0292 4.33667L4.86583 10.5C4.385 10.9808 4.14417 11.2217 3.9375 11.4867C3.69342 11.7994 3.48413 12.1378 3.31333 12.4958C3.16917 12.7992 3.06167 13.1225 2.84667 13.7675L1.71167 17.17C1.65943 17.3258 1.65168 17.4931 1.68929 17.653C1.72689 17.813 1.80837 17.9593 1.92456 18.0754C2.04075 18.1916 2.18704 18.2731 2.34699 18.3107C2.50694 18.3483 2.67421 18.3406 2.83 18.2883L6.2325 17.1533C6.87833 16.9383 7.20083 16.8308 7.50417 16.6867C7.8625 16.5158 8.20083 16.3067 8.51333 16.0625C8.77833 15.8558 9.01917 15.615 9.5 15.1342ZM17.3733 7.26083C17.9879 6.6463 18.3331 5.81282 18.3331 4.94375C18.3331 4.07467 17.9879 3.24119 17.3733 2.62667C16.7588 2.01214 15.9253 1.6669 15.0562 1.6669C14.1872 1.6669 13.3537 2.01214 12.7392 2.62667L12 3.36583L12.0317 3.45833C12.3959 4.5006 12.992 5.44658 13.775 6.225C14.5767 7.03142 15.5558 7.63926 16.6342 8L17.3733 7.26083Z" fill="#212B36"/>
</svg>
