<?xml version="1.0" encoding="UTF-8"?><svg id="Layer_1" xmlns="http://www.w3.org/2000/svg" viewBox="0 0 74 26"><defs><style>.cls-1{fill:#000;}.cls-1,.cls-2,.cls-3{stroke-width:0px;}.cls-2{fill:#60bb46;}.cls-3{fill:#fff;}</style></defs><path class="cls-1" d="M32.5,18.3c-.7,1.6-1.9,2.5-3.6,2.7-.2,0-.4,0-.6,0h0c-.5,0-1.1,0-1.6-.2-.7-.2-1.2-.5-1.8-.9-.1-.1-.3-.2-.4-.3-.2,0-.2,0-.3,0,0,.1-.1.2-.2.3,0,0-.1.2-.2.2,0,0-.2,0-.3,0,0,0-.1-.2-.1-.3.1-1.4.3-2.7.4-4.1q0-.2.2-.2t.4.4c0,1.2.5,2.2,1.3,3.1,1.1,1.1,2.8,1.4,4.1.7.9-.4,1.4-1.2,1.5-2.2.1-1,0-1.9-.7-2.7-.4-.4-.9-.7-1.4-1-.4-.2-.9-.4-1.3-.6-1-.4-2-.8-2.9-1.5-.9-.7-1.3-1.6-1.4-2.6-.1-.7-.2-1.4.1-2.1.6-1.6,1.6-2.6,3.3-2.9,1.1-.2,2.2,0,3.3.3.2,0,.3.1.4.2.2,0,.3,0,.4,0,.1-.1.3-.2.4-.3.2-.1.3,0,.3.1,0,.2,0,.5,0,.7,0,.8.2,1.7.2,2.5,0,.2,0,.4,0,.6,0,.1,0,.2-.2.2-.3,0-.3.1-.4-.2-.3-1-.8-1.8-1.6-2.5-.6-.5-1.3-.8-2.1-.8-.5,0-1.1,0-1.6.3-.8.4-1.2,1.1-1.3,1.9-.1.9,0,1.7.6,2.4.3.4.8.6,1.3.9.7.4,1.5.6,2.3.9.5.2,1.1.4,1.6.7,1.3.7,2,1.9,2.1,3.4,0,1,0,2-.5,3Z"/><path class="cls-1" d="M59.5,11.3v.3c0,.2,0,.3-.3.3h-.4c-.4,0-.7.2-.9.6-.3.8-.7,1.7-1.1,2.5-.8,1.9-1.5,3.8-2.3,5.7,0,.1-.1.2-.2.3-.2.1-.4,0-.5-.2-.1-.2-.2-.4-.3-.7-.7-2-1.3-4-2-5.9,0,0,0,0,0-.1,0,0,0,0-.1.1-.9,2.1-1.8,4.2-2.6,6.2,0,0,0,.2-.1.3,0,.2-.2.3-.4.3-.2,0-.3-.2-.3-.3-.2-.4-.3-.8-.5-1.2-.9-2.3-1.7-4.6-2.6-7-.1-.4-.4-.5-.8-.6h-.6c-.1,0-.2,0-.2-.2,0-.2,0-.3,0-.5,0-.1,0-.2.2-.2.5,0,.9,0,1.4,0,.8,0,1.6,0,2.4,0,.2,0,.3,0,.3.3v.4c0,.1,0,.2-.2.2h-.2c-.2,0-.4.1-.3.4,0,0,0,.2,0,.2.6,2,1.2,3.9,1.7,5.9,0,0,0,0,0,.1,0,0,0,0,0-.1.7-1.8,1.5-3.5,2.2-5.3.2-.5-.2-1-.6-1-.1,0-.3,0-.4,0-.1,0-.2,0-.2-.2v-.4c0-.2,0-.3.3-.3.4,0,.7,0,1.1,0,.8,0,1.6,0,2.5,0,.3,0,.3,0,.3.3v.4c0,.1,0,.2-.2.2s-.2,0-.4,0c-.3,0-.5.3-.4.5,0,.3.2.6.3.9.5,1.5.9,3.1,1.4,4.6,0,0,0,.1,0,.2h0s0,0,0-.1c.6-1.6,1.2-3.2,1.8-4.8,0-.2.1-.5.2-.8,0-.3-.2-.5-.5-.5-.5,0-.4,0-.4-.4s0-.4.4-.4c1,0,2,0,3,0,.2,0,.2,0,.2.2Z"/><path class="cls-1" d="M68.1,19.1s0,0,0,0c0,0,0,0-.1.1-.2.2-.6.4-.9.3-.3,0-.4-.4-.4-.6,0-.3,0-.7,0-1,0-1.7,0-3.3,0-5,0-.3,0-.6-.1-.9-.2-.7-.8-1-1.5-1.2-1-.2-2,0-3,.5-.6.3-1.1.6-1.5,1.2-.3.4-.5.8-.5,1.3,0,.5.2.7.7.7h0c.5,0,.8-.3.9-.8,0-.3,0-.7,0-1,0-.2,0-.4.2-.5,0,0,.2-.1.3-.2.5-.2,1-.3,1.5-.2.7.1,1.1.4,1.2,1.2,0,.6,0,1.2,0,1.9,0,.1,0,.2-.1.2-.5.3-1,.6-1.6.8-.6.3-1.2.5-1.7.9-.4.2-.7.5-1,.9-.5.8-.5,1.6-.2,2.5.2.5.5.8,1,.8.5,0,1.1,0,1.6-.1.8-.3,1.6-.7,2.2-1.4,0,0,0,0,0,0,0,0,0,0,0,.1.1.4.3.8.7,1.1.8.6,2.3.3,2.7-1,0-.1-.2-.4-.4-.4ZM64.5,19c-.3.4-.8.6-1.2.7-.8.2-1.4-.3-1.4-1,0-.7.2-1.3.7-1.7.4-.3.8-.6,1.3-.8.3-.1.6-.3,1-.5v.2c0,.8,0,1.6,0,2.4,0,.4-.1.6-.3.9Z"/><path class="cls-1" d="M42.8,17.9c-.2,0-.2,0-.3,0-.7,1.2-2.1,1.8-3.4,1.4-1-.3-1.6-.9-2-1.8-.4-.9-.5-1.9-.4-2.9,0-.1,0-.2.2-.2h5.4c.1,0,.2,0,.3,0,.2,0,.3-.1.3-.4,0-.5-.2-.9-.3-1.4-.4-.9-1-1.6-2-1.8-1-.2-2-.2-2.9.2-1.1.5-1.9,1.4-2.3,2.5-.5,1.4-.5,2.8-.1,4.1.3.9.8,1.8,1.6,2.3,1.1.7,2.2.9,3.5.7,1.3-.3,2.2-1.2,2.8-2.4.1-.3.1-.3-.2-.5ZM37.8,12c.6-.4,1.2-.6,1.9-.3.5.2.8.6,1,1.2,0,.2,0,.5.1.7,0,.2,0,.3-.2.3-.1,0-.2,0-.3,0h-3.4s0,0-.1,0c.2-.7.5-1.4,1.1-1.9Z"/><path class="cls-1" d="M71.4,12.4h-.2c0-.4,0-.8,0-1.2h0c-.1.4-.3.7-.4,1.1,0,0,0,.1-.1.1-.1,0-.1,0-.1-.1-.1-.3-.2-.7-.3-1,0,0,0,0,0,0,0,.4,0,.8,0,1.3h-.2c0-.5,0-1,.1-1.6q.3,0,.3.2c.1.3.2.7.3,1,.1-.4.2-.7.4-1q0-.2.3-.2c0,.5,0,1.1,0,1.6Z"/><path class="cls-1" d="M69.6,11h-.5v1.4h-.2v-1.4h-.5v-.2h1.1c0,0,0,.1,0,.2Z"/><path class="cls-2" d="M20.6,13.9h-3.1c-.1,0-.2,0-.1-.1,0-.2,0-.5,0-.7,0-.3,0-.6,0-.9,0,0,.1,0,.2,0h3.1c0,0,.1,0,.2,0,0-.3,0-.6-.1-.9-.2-.9-.5-1.8-.9-2.6-.6-1-1.3-1.9-2.2-2.7-1.1-.9-2.4-1.6-3.9-1.9-1.1-.2-2.3-.3-3.4,0-2.1.4-3.9,1.4-5.3,3-2,2.3-2.7,5-2.1,8,.5,2.5,1.9,4.4,4,5.8,1.1.8,2.4,1.2,3.8,1.4,0,0,0,0,.1,0,0,0,0,0,0,0h.1c0,0,.1,0,.2,0t0,0c0,0,.2,0,.3,0h.9c0,0,.2,0,.2,0,0,0,0,0,0,0h0c0,0,.1,0,.2,0,.3,0,.5,0,.8-.1,1-.2,2-.5,2.9-1.1.6-.4,1.2-.8,1.7-1.2.6-.5,1.1-1.1,1.5-1.8.5-.8.8-1.6,1.1-2.4.1-.5.2-1,.3-1.4,0-.2,0-.2-.2-.2ZM15.6,15.3c-.2.8-.6,1.4-1.1,2-.8.8-1.7,1.2-2.8,1.3-.8,0-1.5,0-2.2-.3-.8-.3-1.4-.9-1.9-1.6-.5-.7-.8-1.5-1-2.4-.2-1-.3-2.1,0-3.1.3-1.2,1-2.1,2-2.8.6-.4,1.8-.7,2.7-.7,1.3,0,2.2.6,2.9,1.7.2.4.4.8.5,1.2,0,.4,0,.5-.3.6-.5.1-.7.2-1.1.2-1.6.3-3.4.5-5,.8,0,0-.1,0-.1.1,0,1.5.4,2.8,1.6,3.9,1.3,1.2,3.2,1,4.3,0,.4-.4.8-.8,1-1.4,0-.1.1-.2.3-.1,0,0,0,0,0,0,.3.1.3.1.2.4Z"/><path class="cls-3" d="M15.3,14.9s0,0,0,0c-.2,0-.2,0-.3.1-.2.5-.5,1-1,1.4-1.1.9-3,1.2-4.3,0-1.1-1.1-1.5-2.4-1.6-3.9,0,0,0-.1.1-.1,1.6-.2,3.4-.5,5-.8.5,0,.7-.1,1.1-.2.4,0,.4-.2.4-.6-.1-.4-.3-.8-.5-1.2-.7-1.1-1.6-1.7-2.9-1.7-.9,0-2,.3-2.7.7-1,.7-1.7,1.6-2,2.8-.3,1-.3,2.1,0,3.1.2.9.4,1.7,1,2.4.5.7,1.1,1.3,1.9,1.6.7.3,1.5.3,2.2.3,1.1,0,2-.5,2.8-1.3.5-.6.9-1.3,1.1-2,0-.3,0-.3-.2-.4ZM8.4,11.4c0-.5.2-1,.4-1.5.4-.6.9-1.1,1.6-1.2.9-.2,1.6.2,2,1.1.1.2.2.5.2.8,0,.2,0,.2-.2.3-.2.1-.4.1-.5.2-1.2.2-2.3.4-3.4.6-.1,0-.2,0-.1-.1Z"/><path class="cls-2" d="M12.7,10.5c0,.2,0,.2-.2.3-.2.1-.4.1-.5.2-1.2.2-2.3.4-3.4.6-.1,0-.2,0-.1-.1,0-.5.2-1,.4-1.5.4-.6.9-1.1,1.6-1.2.9-.2,1.6.2,2,1.1.1.3.2.5.2.8Z"/></svg>