<svg width="19" height="16" viewBox="0 0 19 16" fill="none" xmlns="http://www.w3.org/2000/svg">
<path d="M5.10292 12.4879C3.48854 11.3416 2.21104 9.85062 1.48917 8.90912C1.28731 8.64923 1.17773 8.32952 1.17773 8.00044C1.17773 7.67136 1.28731 7.35165 1.48917 7.09175C2.79554 5.38637 5.9298 1.875 9.58905 1.875C11.2305 1.875 12.7653 2.58113 14.0778 3.51475" stroke="#766E6E" stroke-width="2" stroke-linecap="round" stroke-linejoin="round"/>
<path d="M11.4527 6.15118C11.2097 5.90414 10.9202 5.70766 10.6009 5.57306C10.2816 5.43846 9.93881 5.36842 9.5923 5.36697C9.24578 5.36551 8.90241 5.43268 8.58198 5.5646C8.26155 5.69652 7.97042 5.89057 7.72536 6.13557C7.48031 6.38057 7.28619 6.67166 7.15419 6.99205C7.0222 7.31245 6.95495 7.65581 6.95632 8.00232C6.95769 8.34884 7.02765 8.69165 7.16218 9.01099C7.2967 9.33034 7.49311 9.61988 7.7401 9.86293" stroke="#766E6E" stroke-width="2" stroke-linecap="round" stroke-linejoin="round"/>
<path d="M2.58911 15L16.5891 1" stroke="#766E6E" stroke-width="2" stroke-linecap="round" stroke-linejoin="round"/>
<path d="M7.83911 13.866C8.40717 14.0351 8.99643 14.1223 9.58911 14.125C13.2484 14.125 16.3826 10.6136 17.689 8.90825C17.8908 8.64812 18.0002 8.32821 18.0001 7.99898C17.9999 7.66974 17.8902 7.34994 17.6881 7.09C17.229 6.49105 16.7365 5.91848 16.2129 5.375" stroke="#766E6E" stroke-width="2" stroke-linecap="round" stroke-linejoin="round"/>
</svg>
