<svg id="Icons_logo_facebook" data-name="Icons / logo / facebook" xmlns="http://www.w3.org/2000/svg" width="32" height="32" viewBox="0 0 32 32">
  <rect id="Icons_logo_facebook_Frame_Background_" data-name="Icons / logo / facebook [Frame Background]" width="32" height="32" fill="none"/>
  <path id="Icon" d="M28,1.546V26.454A1.546,1.546,0,0,1,26.454,28H18.667V17h3.641l.547-4H18.667V10.228c0-1.225.335-2.056,2.093-2.056h2.574V4.395c-.386-.051-2.049-.168-3.594-.168C16.508,4.227,14,6.2,14,9.812V13H10.653v4H14V28H1.546A1.546,1.546,0,0,1,0,26.454V1.546A1.546,1.546,0,0,1,1.546,0H26.454A1.546,1.546,0,0,1,28,1.546Z" transform="translate(2 2)" fill="#004d80" fill-rule="evenodd"/>
</svg>
