<svg id="Icons_logo_google" data-name="Icons / logo / google" xmlns="http://www.w3.org/2000/svg" width="32" height="32" viewBox="0 0 32 32">
  <rect id="Icons_logo_google_Frame_Background_" data-name="Icons / logo / google [Frame Background]" width="32" height="32" fill="none"/>
  <path id="Icon" d="M27.469,14.34a13.979,13.979,0,0,1-3.636,9.681A13,13,0,0,1,14.368,28,14.613,14.613,0,0,1,3.831,23.725,14.054,14.054,0,0,1,0,14,14.21,14.21,0,0,1,3.986,4.107,14.273,14.273,0,0,1,14.084,0h0a13.852,13.852,0,0,1,9.228,3.555l-3.918,3.9a7.949,7.949,0,0,0-5.184-2.019A8.706,8.706,0,0,0,8.118,7.816,9.042,9.042,0,0,0,5.555,13.99a8.755,8.755,0,0,0,2.613,6.18A9.119,9.119,0,0,0,14.3,22.614c3.063,0,6.813-2.02,7.621-5.858H14.138V11.243H27.166l.141.6a16.059,16.059,0,0,1,.162,2.5Z" transform="translate(2.266 2)" fill="#004d80" fill-rule="evenodd"/>
</svg>
