<?xml version="1.0" encoding="utf-8"?>
<!-- Generator: Adobe Illustrator 28.0.0, SVG Export Plug-In . SVG Version: 6.00 Build 0)  -->
<svg version="1.1" id="Layer_1" xmlns="http://www.w3.org/2000/svg" xmlns:xlink="http://www.w3.org/1999/xlink" x="0px" y="0px"
	 viewBox="0 0 50 50" style="enable-background:new 0 0 50 50;" xml:space="preserve" height="50px" width="50px">
<style type="text/css">
	.st0{fill:#004D80;}
	.st1{fill:#FFFFFF;}
</style>
<g id="Like" transform="translate(-0.012)">
	<circle id="Oval" class="st0" cx="25" cy="25" r="24.8"/>
</g>
<g>
	<path class="st1" d="M17.1,27.1c0.7-0.6,1.3-1.1,2-1.7c2.1-2,3.8-4.3,5-6.9c0.1-0.3,0.2-0.5,0.3-0.8c0-0.1,0-0.1,0.1-0.2
		c0.2-0.3,0.5-0.3,0.7,0c0.7,1.1,1.4,2.2,2,3.3c1,1.7,2.1,3.3,3.1,5c0.3,0.6,0.7,1.1,1,1.7c0.1,0.2,0.2,0.3,0.1,0.5
		c-0.1,0.2-0.3,0.2-0.5,0.2c-0.8,0-1.6-0.1-2.3-0.1c-1.1,0-2.2,0.1-3.3,0.3c-1.9,0.3-3.7,0.9-5.4,1.7c-0.2,0.1-0.3,0.2-0.5,0.2
		c-0.1,0-0.1,0-0.2,0C18.5,29.3,17.8,28.2,17.1,27.1C17.1,27.1,17.1,27.1,17.1,27.1z"/>
	<path class="st1" d="M19.1,31.1c0,0.3-0.1,0.4-0.3,0.5c-1.1,0.7-2.1,1.3-3.2,2c-0.4,0.2-0.7,0.5-1.1,0.7c-0.4,0.2-0.7,0.1-0.9-0.2
		c-0.7-1.2-1.5-2.4-2.2-3.6c-0.3-0.4-0.2-0.7,0.2-1c1.4-0.9,2.8-1.7,4.2-2.6c0.3-0.2,0.6-0.1,0.8,0.2c0.6,0.9,1.1,1.8,1.7,2.7
		c0.2,0.3,0.4,0.6,0.6,1C19.1,31,19.1,31.1,19.1,31.1z"/>
	<path class="st1" d="M39.6,23.7c0,1-0.1,1.8-0.3,2.6c-0.1,0.3-0.3,0.5-0.6,0.4c-0.3-0.1-0.5-0.3-0.4-0.7c0.2-0.9,0.3-1.8,0.3-2.7
		c-0.1-2.6-1-4.9-2.6-7c-1.3-1.7-2.9-2.9-4.9-3.6c-0.4-0.2-0.8-0.3-1.3-0.4c-0.3-0.1-0.5-0.4-0.4-0.7c0.1-0.3,0.3-0.5,0.7-0.4
		c1.8,0.5,3.4,1.3,4.8,2.4c1.5,1.3,2.8,2.8,3.6,4.7c0.6,1.3,1,2.6,1.1,4.1C39.6,22.9,39.6,23.4,39.6,23.7z"/>
	<path class="st1" d="M36.9,23.7c0,0.7-0.1,1.4-0.2,2.1c-0.1,0.2-0.2,0.4-0.4,0.4c-0.3,0-0.5-0.1-0.6-0.3c-0.1-0.1-0.1-0.3,0-0.4
		c0.2-0.9,0.2-1.7,0.2-2.6c-0.1-1.3-0.5-2.6-1.2-3.7c-1.2-2-2.9-3.4-5.1-4.1c-0.1,0-0.3-0.1-0.4-0.1c-0.3-0.1-0.5-0.4-0.4-0.7
		c0.1-0.3,0.3-0.5,0.6-0.3c0.6,0.2,1.1,0.4,1.7,0.6c2.6,1.3,4.4,3.3,5.3,6C36.7,21.6,36.9,22.6,36.9,23.7z"/>
	<path class="st1" d="M14.8,34.6c0.5-0.3,1-0.6,1.4-0.9c0.2-0.1,0.4-0.3,0.7-0.4c0.2-0.1,0.3,0,0.3,0.2c0.1,0.5,0.3,0.8,0.8,0.9
		c0.2,0,0.4,0.3,0.5,0.5c0,0.4,0.3,0.7,0.7,0.8c0.3,0.1,0.5,0.3,0.5,0.6c0,0.3,0.3,0.6,0.8,0.7c0.5,0.1,0.7,0.7,0.4,1.1
		c-0.1,0.1-0.2,0.2-0.4,0.2c-0.4,0-0.8,0.1-1.2,0.4c-0.2,0.2-0.4,0.1-0.6,0c-0.1-0.1-0.2-0.2-0.3-0.3c-1.1-1.1-2.2-2.3-3.2-3.4
		C15,34.9,14.9,34.7,14.8,34.6C14.8,34.6,14.8,34.6,14.8,34.6z"/>
	<path class="st1" d="M34.2,23.8c-0.1,0.4-0.1,0.9-0.2,1.4c-0.1,0.3-0.3,0.5-0.6,0.4c-0.3,0-0.5-0.3-0.5-0.6c0-0.5,0.1-0.9,0.1-1.4
		c0-1.2-0.4-2.3-1-3.3c-0.5-0.8-1.1-1.4-1.9-1.9c-0.5-0.3-1.1-0.6-1.7-0.8c-0.1,0-0.1,0-0.2-0.1c-0.3-0.1-0.4-0.4-0.3-0.7
		c0.1-0.3,0.3-0.4,0.6-0.4c0.7,0.2,1.4,0.5,2,0.8c0.5,0.3,1,0.8,1.5,1.2c1.1,1.1,1.7,2.4,2,4C34.1,23,34.1,23.4,34.2,23.8z"/>
	<path class="st1" d="M13.3,34.2c-0.2,0.1-0.4,0.3-0.6,0.4c-0.3,0.1-0.6,0-0.7-0.3c-0.3-0.8-0.8-1.6-1.4-2.2
		c-0.2-0.2-0.2-0.6,0.1-0.8c0.2-0.1,0.4-0.2,0.6-0.4C11.9,31.9,12.6,33.1,13.3,34.2z"/>
	<path class="st1" d="M18.2,32.4c0.1,0.2,0.3,0.4,0.4,0.6c0.2,0.3,0.5,0.5,0.8,0.6c0.2,0.1,0.2,0.2,0.2,0.4c0,0.2-0.1,0.3-0.3,0.3
		c-0.2,0.1-0.4,0-0.6-0.1c-0.4-0.4-0.8-0.8-1.2-1.3c0,0,0,0,0-0.1C17.7,32.7,18,32.6,18.2,32.4z"/>
</g>
</svg>
