<?xml version="1.0" encoding="utf-8"?>
<!-- Generator: Adobe Illustrator 28.3.0, SVG Export Plug-In . SVG Version: 6.00 Build 0)  -->
<svg version="1.1" id="Layer_1" xmlns="http://www.w3.org/2000/svg" xmlns:xlink="http://www.w3.org/1999/xlink" x="0px" y="0px"
	 viewBox="0 0 24.3 23.7" style="enable-background:new 0 0 24.3 23.7;" xml:space="preserve">
<g>
	<path d="M16.5,18.9c-1.1,0.6-2.4,0.9-3.8,0.9c-1.3,0-2.6-0.3-3.8-0.9c-0.2-0.1-0.5-0.1-0.8-0.1l-4.4,1.5l1.5-4.4
		c0.1-0.3,0.1-0.5-0.1-0.8c-0.6-1.2-0.9-2.5-0.9-3.8c0-1.3,0.3-2.5,0.8-3.6L3.5,6.3c-0.8,1.5-1.3,3.2-1.3,5c0,1.5,0.3,3,0.9,4.3
		l-2,6c-0.1,0.4,0,0.8,0.2,1c0.2,0.2,0.5,0.3,0.7,0.3c0.1,0,0.2,0,0.3,0l6-2c1.3,0.6,2.8,0.9,4.3,0.9h0c1.9,0,3.7-0.5,5.3-1.4
		L16.5,18.9z M13.3,0.9h-0.6C11.1,0.9,9.5,1.3,8,2C7.3,2.3,6.7,2.7,6.1,3.2l1.5,1.4C8,4.3,8.5,4,8.9,3.8c1.2-0.6,2.5-0.9,3.8-0.9
		c0,0,0,0,0,0h0.5c4.3,0.2,7.7,3.7,7.9,7.9v0.6c0,1.3-0.3,2.6-0.9,3.8c-0.2,0.4-0.4,0.8-0.7,1.2l1.5,1.4c0.4-0.5,0.7-1.1,1-1.7
		c0.7-1.4,1.1-3.1,1.1-4.7v-0.6C22.9,5.4,18.6,1.2,13.3,0.9z"/>
	<path d="M22.2,21.6c-0.2,0.2-0.5,0.3-0.7,0.3c-0.2,0-0.5-0.1-0.7-0.3l-1.9-1.9l-1.5-1.4L5.5,6.9L4.1,5.4l-2-1.9
		c-0.4-0.4-0.4-1,0-1.4c0.4-0.4,1-0.4,1.4,0l1.8,1.8l1.4,1.4L18.9,17l1.4,1.4l1.8,1.8C22.6,20.6,22.6,21.2,22.2,21.6z"/>
</g>
</svg>
