<svg xmlns="http://www.w3.org/2000/svg" width="19.394" height="20" viewBox="0 0 19.394 20">
  <g id="Settings_Icon" transform="translate(-329 -63)">
    <path id="Settings_Icon-2" data-name="Settings_Icon" d="M347.735,70.55l-1.833-.63.863-1.78a1.032,1.032,0,0,0,.084-.6,1.014,1.014,0,0,0-.268-.54l-2.066-2.13a.959.959,0,0,0-.528-.28.943.943,0,0,0-.587.09l-1.726.89-.611-1.89a1,1,0,0,0-.35-.49.952.952,0,0,0-.561-.19h-2.91a.948.948,0,0,0-.566.187,1,1,0,0,0-.355.493l-.611,1.89-1.726-.89a.943.943,0,0,0-.582-.086.957.957,0,0,0-.523.276L330.813,67a1.014,1.014,0,0,0-.271.545,1.026,1.026,0,0,0,.087.605l.863,1.78-1.833.63a.97.97,0,0,0-.475.361A1.027,1.027,0,0,0,329,71.5v3a1.02,1.02,0,0,0,.181.585.978.978,0,0,0,.478.365l1.833.63-.863,1.78a1.032,1.032,0,0,0-.084.6,1.014,1.014,0,0,0,.268.54l2.066,2.13a.959.959,0,0,0,.528.28.943.943,0,0,0,.587-.09l1.726-.89.611,1.89a1,1,0,0,0,.354.493.953.953,0,0,0,.567.187h2.909a.948.948,0,0,0,.567-.187,1,1,0,0,0,.354-.493l.611-1.89,1.726.89A.944.944,0,0,0,344,81.4a.961.961,0,0,0,.519-.273L346.581,79a1.013,1.013,0,0,0,.271-.545,1.026,1.026,0,0,0-.087-.605l-.863-1.78,1.833-.63a.97.97,0,0,0,.475-.361,1.026,1.026,0,0,0,.184-.579v-3a1.028,1.028,0,0,0-.181-.585A.978.978,0,0,0,347.735,70.55Zm-1.28,3.23-1.164.4a1.931,1.931,0,0,0-.72.435,2,2,0,0,0-.475.707,2.058,2.058,0,0,0,.07,1.678l.553,1.14-1.067,1.1-1.076-.6a1.888,1.888,0,0,0-1.61-.057,1.943,1.943,0,0,0-.676.485,2.023,2.023,0,0,0-.42.731l-.388,1.2h-1.541l-.388-1.2a2.02,2.02,0,0,0-.422-.742,1.938,1.938,0,0,0-.685-.491,1.888,1.888,0,0,0-1.628.073l-1.1.57-1.067-1.1.582-1.11a2.058,2.058,0,0,0,.07-1.678,1.994,1.994,0,0,0-.476-.707,1.919,1.919,0,0,0-.719-.435l-1.164-.4V72.22l1.164-.4a1.919,1.919,0,0,0,.719-.435,1.994,1.994,0,0,0,.476-.707,2.058,2.058,0,0,0-.07-1.678l-.553-1.11,1.067-1.1,1.076.57a1.888,1.888,0,0,0,1.628.073,1.938,1.938,0,0,0,.685-.491,2.02,2.02,0,0,0,.422-.742l.388-1.2h1.512l.388,1.2a2.02,2.02,0,0,0,.422.742,1.938,1.938,0,0,0,.685.491,1.888,1.888,0,0,0,1.628-.073l1.105-.57,1.067,1.1L344.166,69a2.061,2.061,0,0,0-.055,1.66,2,2,0,0,0,.471.7,1.922,1.922,0,0,0,.709.433l1.164.4ZM338.7,69a3.8,3.8,0,0,0-2.155.674,3.979,3.979,0,0,0-1.429,1.8,4.118,4.118,0,0,0-.22,2.311,4.037,4.037,0,0,0,1.061,2.048,3.847,3.847,0,0,0,1.986,1.095,3.768,3.768,0,0,0,2.241-.228,3.9,3.9,0,0,0,1.741-1.473,4.095,4.095,0,0,0-.482-5.051A3.821,3.821,0,0,0,338.7,69Zm0,6a1.893,1.893,0,0,1-1.077-.337,1.99,1.99,0,0,1-.715-.9,2.055,2.055,0,0,1-.11-1.156,2.016,2.016,0,0,1,.531-1.024,1.918,1.918,0,0,1,.993-.547,1.884,1.884,0,0,1,1.12.114,1.957,1.957,0,0,1,.871.737,2.05,2.05,0,0,1-.242,2.525A1.909,1.909,0,0,1,338.7,75Z"/>
  </g>
</svg>
