<?xml version="1.0" standalone="no"?>
<!DOCTYPE svg PUBLIC "-//W3C//DTD SVG 20010904//EN"
 "http://www.w3.org/TR/2001/REC-SVG-20010904/DTD/svg10.dtd">
<svg version="1.0" xmlns="http://www.w3.org/2000/svg"
 width="2560.000000pt" height="1220.000000pt" viewBox="0 0 2560.000000 1220.000000"
 preserveAspectRatio="xMidYMid meet">

<g transform="translate(0.000000,1220.000000) scale(0.100000,-0.100000)"
fill="#000000" stroke="none">
<path d="M12918 10067 l-668 -142 0 -552 c0 -362 3 -553 10 -553 11 0 1306
278 1333 286 16 5 17 40 17 555 0 433 -3 549 -12 548 -7 0 -313 -64 -680 -142z"/>
<path d="M7365 9435 l-660 -140 0 -2285 c0 -2164 1 -2290 18 -2374 59 -289
179 -518 377 -716 287 -289 669 -426 1125 -405 333 15 595 65 785 151 l60 27
0 550 0 549 -22 -6 c-121 -36 -267 -67 -352 -75 -300 -29 -514 64 -607 263
-60 128 -59 105 -59 1229 l0 1027 520 0 520 0 0 580 0 580 -520 0 -520 0 -2
593 -3 593 -660 -141z"/>
<path d="M4540 8474 c-433 -50 -733 -153 -1002 -344 -48 -34 -131 -107 -185
-163 -192 -198 -302 -409 -364 -697 -20 -89 -23 -136 -23 -310 -1 -135 4 -229
13 -275 76 -389 304 -669 723 -889 146 -77 271 -129 613 -256 332 -124 470
-186 560 -252 114 -84 158 -161 158 -273 -1 -165 -99 -267 -298 -312 -86 -20
-364 -22 -480 -4 -386 59 -763 179 -1116 357 -60 30 -111 54 -114 54 -3 0 -5
-290 -5 -644 l0 -645 128 -49 c803 -313 1699 -344 2346 -81 599 243 926 723
926 1359 0 603 -274 1006 -872 1284 -130 61 -235 101 -523 201 -465 161 -590
229 -660 356 -50 93 -34 222 38 297 42 45 114 80 196 98 78 16 325 18 456 4
350 -40 741 -152 1026 -295 38 -19 71 -35 74 -35 3 0 5 286 5 635 l0 636 -43
18 c-188 81 -524 165 -827 207 -109 15 -660 28 -750 18z"/>
<path d="M16245 8469 c-290 -45 -559 -167 -782 -356 -35 -30 -66 -53 -67 -51
-2 1 -18 77 -37 168 l-34 165 -598 3 -597 2 0 -3185 c0 -1752 3 -3185 8 -3185
4 0 310 64 680 142 l672 142 0 773 c0 425 2 773 5 773 3 0 51 -31 107 -69 267
-178 502 -256 808 -268 678 -25 1256 326 1594 967 176 334 279 736 317 1230
14 191 6 587 -15 760 -134 1058 -687 1779 -1511 1971 -71 16 -132 21 -290 24
-110 2 -227 0 -260 -6z m6 -1203 c403 -72 682 -500 731 -1123 41 -522 -127
-1040 -413 -1272 -133 -107 -262 -151 -449 -151 -221 0 -408 63 -555 187 l-70
59 -3 1018 c-2 867 0 1020 12 1038 8 11 40 42 72 69 170 144 447 215 675 175z"/>
<path d="M20380 8465 c-559 -77 -1032 -379 -1351 -862 -210 -319 -342 -678
-410 -1118 -17 -110 -22 -201 -26 -430 -5 -306 6 -469 46 -702 180 -1031 823
-1671 1821 -1809 153 -22 497 -29 675 -15 435 35 832 140 1148 303 l77 40 0
543 0 543 -108 -48 c-295 -132 -620 -212 -971 -240 -551 -42 -920 59 -1128
309 -95 115 -170 299 -189 461 l-7 60 1336 0 1335 0 7 137 c11 205 0 676 -20
823 -154 1163 -752 1884 -1664 2005 -131 18 -441 18 -571 0z m420 -1099 c301
-64 503 -324 550 -706 5 -46 10 -101 10 -122 l0 -38 -710 0 -710 0 0 48 c0 70
26 228 51 307 57 185 178 345 326 432 139 81 327 112 483 79z"/>
<path d="M11420 8439 c-74 -9 -216 -52 -275 -81 -125 -64 -240 -167 -323 -292
-29 -43 -54 -72 -56 -64 -3 7 -21 90 -41 183 -20 94 -39 178 -41 188 -5 16
-42 17 -590 17 l-584 0 0 -2390 0 -2390 680 0 680 0 0 1627 0 1628 83 80 c141
136 282 201 497 232 105 14 139 15 239 5 64 -6 137 -18 164 -26 l47 -14 0 628
0 628 -67 16 c-141 34 -279 42 -413 25z"/>
<path d="M12250 6000 l0 -2390 680 0 680 0 0 2390 0 2390 -680 0 -680 0 0
-2390z"/>
</g>
</svg>
