<svg xmlns="http://www.w3.org/2000/svg" width="22" height="22" viewBox="0 0 22 22">
  <g id="Group_22" data-name="Group 22" transform="translate(-280 -215)">
    <circle id="Ellipse_4" data-name="Ellipse 4" cx="11" cy="11" r="11" transform="translate(280 215)" fill="#27a9ff"/>
    <g id="Icon_ionic-ios-checkbox-outline" data-name="Icon ionic-ios-checkbox-outline" transform="translate(275.201 209.739)">
      <path id="Path_7" data-name="Path 7" d="M21.039,13.155l-.866-.89a.186.186,0,0,0-.138-.059h0a.179.179,0,0,0-.138.059l-6,6.044-2.183-2.183a.19.19,0,0,0-.275,0L10.564,17a.2.2,0,0,0,0,.28l2.754,2.754a.871.871,0,0,0,.575.28.913.913,0,0,0,.57-.27h0l6.575-6.609A.21.21,0,0,0,21.039,13.155Z" fill="#fff"/>
    </g>
  </g>
</svg>
