<svg xmlns="http://www.w3.org/2000/svg" width="22.769" height="22.486" viewBox="0 0 22.769 22.486" fill="currentColor">
  <g transform="translate(-1.95 -1.95)">
    <g transform="translate(2 2)">
      <path d="M21.856,14.442a.851.851,0,0,1,.784.913L22.424,18.2a4.546,4.546,0,0,1-4.512,4.186H4.757A4.546,4.546,0,0,1,.245,18.2L.029,15.355a.852.852,0,0,1,.785-.913.863.863,0,0,1,.913.785l.214,2.844a2.838,2.838,0,0,0,2.816,2.614H17.912a2.837,2.837,0,0,0,2.816-2.614l.215-2.844A.869.869,0,0,1,21.856,14.442ZM12.8,0a3.362,3.362,0,0,1,3.329,2.925H18.36a4.32,4.32,0,0,1,4.309,4.322v3.9a.85.85,0,0,1-.421.734A21.613,21.613,0,0,1,12.185,14.6v2.04a.851.851,0,0,1-1.7,0V14.6A21.6,21.6,0,0,1,.421,11.881.848.848,0,0,1,0,11.147V7.236a4.32,4.32,0,0,1,4.321-4.31H6.543A3.362,3.362,0,0,1,9.872,0ZM18.36,4.627H4.321A2.617,2.617,0,0,0,1.7,7.236v3.416a20.43,20.43,0,0,0,9.618,2.266h.028l.54-.006a20.257,20.257,0,0,0,9.081-2.259v-3.4A2.616,2.616,0,0,0,18.36,4.627ZM12.8,1.7H9.872a1.659,1.659,0,0,0-1.6,1.224H14.4A1.659,1.659,0,0,0,12.8,1.7Z" transform="translate(0 0)" fill="currentColor" stroke="currentColor" stroke-width="0.1" fill-rule="evenodd" />
    </g>
  </g>
</svg>